<svg width="100" height="100" viewBox="0 0 100 100" fill="none" xmlns="http://www.w3.org/2000/svg">
<g clip-path="url(#clip0_10_244)">
<path d="M50 100C63.2608 100 75.9785 94.7322 85.3553 85.3553C94.7322 75.9785 100 63.2608 100 50C100 36.7392 94.7322 24.0215 85.3553 14.6447C75.9785 5.26784 63.2608 0 50 0C36.7392 0 24.0215 5.26784 14.6447 14.6447C5.26784 24.0215 0 36.7392 0 50C0 63.2608 5.26784 75.9785 14.6447 85.3553C24.0215 94.7322 36.7392 100 50 100ZM34.1797 34.1797C36.0156 32.3438 38.9844 32.3438 40.8008 34.1797L49.9805 43.3594L59.1602 34.1797C60.9961 32.3438 63.9648 32.3438 65.7812 34.1797C67.5977 36.0156 67.6172 38.9844 65.7812 40.8008L56.6016 49.9805L65.7812 59.1602C67.6172 60.9961 67.6172 63.9648 65.7812 65.7812C63.9453 67.5977 60.9766 67.6172 59.1602 65.7812L49.9805 56.6016L40.8008 65.7812C38.9648 67.6172 35.9961 67.6172 34.1797 65.7812C32.3633 63.9453 32.3438 60.9766 34.1797 59.1602L43.3594 49.9805L34.1797 40.8008C32.3438 38.9648 32.3438 35.9961 34.1797 34.1797Z" fill="white"/>
</g>
<defs>
<clipPath id="clip0_10_244">
<rect width="100" height="100" fill="white"/>
</clipPath>
</defs>
</svg>
