<svg width="80" height="40" viewBox="0 0 80 40" fill="none" xmlns="http://www.w3.org/2000/svg">
<path d="M60 0C51.624 0 45.556 6.26799 39.996 13.384C34.436 6.26799 28.372 0 20 0C8.97205 0 5.97958e-05 8.97199 5.97958e-05 20C-0.0063706 22.6245 0.505899 25.2244 1.50743 27.6503C2.50897 30.0762 3.98002 32.2803 5.83606 34.1359C7.68474 35.9999 9.88524 37.4781 12.3098 38.4847C14.7344 39.4914 17.3348 40.0064 19.96 39.9999H20.008C28.364 39.9799 34.428 33.7119 39.992 26.596C45.556 33.7239 51.624 39.9999 60 39.9999C71.028 39.9999 80 31.028 80 20C80 8.97199 71.028 0 60 0ZM19.992 32L19.96 35.9999V32C16.764 32 13.76 30.752 11.5041 28.488C9.83203 26.8063 8.69502 24.6674 8.23619 22.3408C7.77737 20.0141 8.01726 17.6038 8.92565 15.4132C9.83404 13.2226 11.3703 11.3498 13.341 10.0307C15.3116 8.71149 17.6286 8.00494 20 7.99999C25.32 7.99999 30.24 13.752 34.984 19.992C30.232 26.228 25.312 31.988 19.992 32ZM60 32C54.68 32 49.756 26.24 45.004 19.992C49.752 13.752 54.672 7.99999 60 7.99999C66.616 7.99999 72 13.384 72 20C72 26.616 66.616 32 60 32Z" fill="#8598BA"/>
</svg>
